<svg id="Layer_1" enable-background="new 0 0 500 500" viewBox="0 0 500 500" xmlns="http://www.w3.org/2000/svg"><path clip-rule="evenodd" d="m468.129 250c-.703-3.283.142-1.167-1.503-4.376-.515-1.004-.948-.95-1.318-1.81-.701-1.63-3.806-1.657-3.902-1.699l-3.475-.567-4.214.491c-1.079.28-1.253.491-2.509.462-.127-.006-.266.133-.387.15l-1.48.127c-.598.29-.428-.074-.734.081-1.687.853-5.361.308-8.244 1.203-.22.093-.428-.104-.642.179-.132.187-.03-.322-.405-.006-.219.185-2.208.103-3.076.988-.959.978-3.304 3.697-3.781 4.752l.087 1.861c-.545.693-.353.766-.069 1.636.311.957.757.485.855.52.724.259.34.896.578.757 1.205-.7.33-.057 2.22.544.001 0 .743.07.821.376.18.709.313.292.538.324.092.017.173.11.26.11l5.706.636c2.008.353 4.017 1.179 6.07.983l2.156-.255c.592.214 7.248-.363 7.695-.306.634.196 2.339.118 3.11-.509l.538-.081c.214-.266.41-.74.63-.596.054.061-.041-.232.335-.254.201-.012.306-.719 1.237-.682.693.027.205-.642 1.682-.74.166-.011.228-1.034.723-1.278l.717-1.902c-.12-.356-.12-.356-.219-1.119zm-76.3-40.202c-10.679 6.208-69.47 43.769-82.347 49.209.042 1.67.641 2.178.503 2.856l-.804 5.273c-.027 3.362-.768 5.107-1.047 7.886-.121 1.202.267 1.02.012 2.353-.11.537-.283 1.075-.127 1.647.006.058.017.121 0 .174-.387 1.098-.156 2.266-.133 3.411l-.503 2.821c-.133 3.446-1.996 12.808-2.96 16.343-.197.723-.254 1.491-.41 2.237l-3.937 18.939c-.266 1.376-.44 2.763-.711 4.139l-3.168 14.869c-.624 1.654-.578 3.434-1.035 5.122-.55 1.992-.717 4.234-1.098 6.192-2.081 10.679-5.099 20.871-7.689 31.426l-4.498 19.066-3.001 12.846c-.129 1.626-.69 1.527-.971 2.122l23.888-27.056 18.025-39.237c6.646-14.469 13.788-29.038 20.616-43.48 1.648-3.474 3.226-6.989 5.047-10.366.22-.405.416-.844.613-1.272 5.215-11.262 23.506-49.835 29.201-58.818 3.843-6.062 7.222-13.274 11.175-19.725zm-114.455 152.686-4.677 23.512-2.781 16.02c-.41.674-.329 1.662-.526 2.74-1.503 8.216-2.292 11.126-2.388 19.511l.11 6.781c-3.844 4.336-7.735 8.654-11.626 12.961l-5.509 6.325-15.095-16.384c.063-.601.11-1.191.197-1.786.395-2.764-.12-4.937.312-7.232.46-2.441-1.004-12.107-1.573-15.326l-1.093-5.399-3.295-18.24-5.151-21.882-3.238-12.99c-.144-.682-.416-1.336-.572-2.012l-2.665-11.505c-1.996-6.565-3.332-13.158-4.804-19.87-1.464-6.303-9.897-55.402-10.433-56.35l20.822-.329 19.367-.468c1.012 0 2.023-.127 3.035-.145l15.707-.179 6.024-.301c2.11-.058 4.22.023 6.33-.191l28.461-.156c-.381.648-.728 1.318-1.139 1.954-1.484 2.327-1.912 4.623-3.226 6.486-1.379 1.956-4.022 11.515-4.798 14.632l-1.191 5.388-4.411 17.991-4.139 21.743-2.376 13.534c-.145.682-.162 1.388-.289 2.07l-2.087 10.655-.572 4.134c-.237 1.435-.63 2.846-.711 4.308zm-55.124 57.922c-.11-.497-.179-1-.526-1.422-.035-.046-.064-.11-.064-.162-.098-1.168-.792-2.133-1.272-3.168l-.682-2.781c-1.705-4.503-2.015-7.604-3.093-11.759-.376-1.445-.63-2.902-.856-4.376-.11-.746-.376-1.468-.538-2.208l-4.105-18.904c-.306-1.365-.717-2.706-1.035-4.07l-3.151-14.875c-.11-1.775-.861-3.376-1.133-5.099-.319-2.076-1.04-4.064-1.515-6.105-2.624-11.281-4.413-24.507-6.55-36.231-1.842-9.592-6.981-31.194-6.706-41.595.004-.142-.8-5.309-.954-6.648-1.006-.374-20.151-16.419-27.282-20.517l-10.342-6.007c-1.869-.855-1.574-1.156-2.151-1.353l-15.997-9.279c-7.897-4.695-16.096-9.994-23.934-14.586l-6.932-3.885 7.723 13.869c6.518 11.284 13.359 24.011 19.569 35.56 5.791 10.769 12.17 24.463 17.448 35.52l8.059 17.003c.139.422.37.884.584 1.278 1.792 3.162 3.174 6.585 4.787 9.857l35.161 74.057zm-109.79-226.882 11.626-7.296c1.364-.885 2.694-1.856 4.07-2.74l19.13-12.065c.746-.474 1.439-1.029 2.208-1.463 1.521-.85 3.023-1.723 4.463-2.694 4.066-2.75 7.654-4.636 11.724-8.013l2.804-1.85c.966-.919 1.792-1.989 3.018-2.584.058-.023.11-.081.156-.133.382-.555.966-.85 1.503-1.191 1.337-.865.851-.95 2.029-1.85 2.636-2.014 4.74-2.918 7.533-5.44 1.305-1.178 3.514-2.536 5.105-3.555l1.301-1.723 5.758 5.949c.815.838 1.711 1.601 2.492 2.474 1.543 1.729 3.128 3.423 4.787 5.024 4.603 4.443 8.425 8.706 13.557 12.875l3.174 3.047c1.324.977 2.683 1.717 3.891 3.105.058.063.127.116.203.15 1.1.52 2.104 2.154 3.521 2.833l5.642 5.122c2.547 2.547 4.742 3.776 6.822 5.978 4.811 5.094 3.447 2.266 7.03 5.55 1.475 1.352.989.094 2.203 1.26 1.006.967-.212-.284 1.792.85l-2.463-5.296c-.264-1.086-5.276-8.286-6.232-9.787-1.973-3.097-4.668-6.302-6.226-9.048-3.436-6.053-18.379-22.798-23.98-29.154l11.782-.249 19.876-.491c1.012 0 2.023-.127 3.035-.144l15.707-.179 6.024-.295c2.11-.064 4.22.017 6.33-.202l19.396-.104-6.458 7.342c-.843.554-1.694 1.862-2.561 2.845-4.27 4.84-10.175 11.293-13.961 16.459l-11.47 15.742c-.881 1.242-7.792 10.028-7.643 10.568.243.017.636-.584.844-.399-.421 1.44-.675 1.334-.052 1.127l-1.95 2.663c.456.048.993-.352 1.41-.555.202.266.411.503.526.884-.069.093-.144.174-.22.254-.443-.087-.076.323.121.717l-1.837-1.3 1.445 2.538c1.837 3.15 5.957 6.656 6.4 8.129.411 1.365 3.362 3.35 4.81 5.417l10.209 12.586c.694.835.398 1.476 2.035 2.971l2.122 2.434 13.655 15.343-34.901-.624c-2.955.02-6.023.333-9.105.22-2.526-.098-5.035.306-7.568.046l-22.026-.012-6.498.162c2.643-3.085 5.535-5.796 8.105-9.123 1.012-1.312 2.07-2.538 3.058-3.902l2.567-2.96c.902-1.364 1.729-2.902 2.839-3.949.046-.041.098-.127.139-.197.844-1.554 1.807-1.945 2.665-3.648l4.631-5.631c2.039-2.249 3.849-5.231 5.694-7.134 4.189-4.319 2.973-4.507 6.065-8.169 1.282-1.519.856-1.809 1.977-3.105l1.683-2.792c-1.059.514-1.014-.001-1.365.081-1.486.349-.89-.346-1.393-.127-3.328 1.451-3.997 2.368-6.914 4.191-2.715 1.696-5.423 4.325-7.81 5.654-2.888 1.608-13.934 11.794-17.291 14.991l-6.082 6.024c-2.194 1.734-18.101 17.713-20.136 19.841-.578-.433-1.754-1.143-1.81-1.636-.12-1.066-3.491-1.752-5.076-3.26-2.517-2.397-7.733-5.611-10.712-7.845-.694-.52-.338-1.146-2.127-1.977l-12.932-8.4-14.84-9.62c-.347-.214-.7-.422-1.035-.647zm181.702-36.705 16.887-17.008 2.949 3.255c2.036 2.392 4.441 3.891 5.989 5.885 1.7 2.19 11.197 8.806 14.314 10.891l5.434 3.446 13.933 9.308 17.141 10.562 18.644 10.799-7.232 4.995-22.911 14.667c-9.128 6.134-51.109 30.283-52.248 31.336l-13.958-13.767c-.536-.405-.615-.986-2.312-2.376l-4.457-4.342-8.429-8.105c-4.541-4.132-13.626-11.246-18.696-14.939l-7.325-5.666c1.232-.688 3.114-2.509 4.087-3.677l2.226-2.035c.994-.897.577.207 1.602-.931 4.251-4.722 3.806-4.106 8.735-8.331l8.92-8.036c1.341-.391 2.133-1.736 3.278-2.827zm115.416 40.7c-1.014 1.746-2.138 2.375-3.642 3.388-1.018.682-1.989 1.422-3.018 2.087-2.382 1.513-1.193.3-2.475 3.266-1.376 3.191-2.532 6.365-3.278 9.481-.469 2.018-3.434 8.252-4.394 10.215-2.835 5.8-4.919 12.228-7.886 18.552-.598 1.275-6.142 13.451-6.625 15.147-.974 3.418-3.035 6.675-3.723 9.244-.04.162-.115.353-.197.514-1.705 3.324-2.763 6.706-4.03 10.065-1.016 2.679-2.796 5.879-3.821 8.406-1.44 3.55-3.024 7.053-4.504 10.579-3.579 8.481-7.689 16.725-11.453 25.113-1.96 4.371-4.024 8.677-6.128 12.985-1.064 2.179-1.989 4.446-3.018 6.666l-25.963 56.025-1.619 2.307-34.964 38.977c-2.266 2.503-4.457 5.111-6.805 7.469-3.977 4.012-7.406 8.423-11.245 12.516-1.682 1.804-3.324 3.654-4.96 5.51-3.028 3.434-8.255 3.619-11.672 0-17.102-18.11-32.9-36.351-49.348-55.008l-8.949-10.1c-.869-1.017-1.044-1.54-1.549-2.665l-16.257-36.202-11.539-25.062-17.61-38.682-7.099-15.36-3.116-6.868c-2.39-4.588-1.792-5.013-2.833-7.359-1.018-2.312-2.093-4.608-3.018-6.961-.578-1.445-1.347-2.867-1.995-4.324-2.858-6.443-7.04-15.801-9.464-22.194-1.123-2.961-4.569-9.552-6.128-12.62-1.363-2.683-.275-1.793-1.422-4.457l-2.682-6.18c-1.312-2.388-2.365-4.885-3.44-7.383-1.805-4.198-.074-2.59-4.006-5.006-4.504-2.768-4.299-9.238 0-11.834l2.873-1.833c.682-.445 1.301-.989 1.989-1.428 1.966-1.22 3.931-2.457 5.856-3.74l7.493-5.162c8.257-5.459 17.454-11.575 25.882-16.661l14.465-8.441 5.492-3.376c3.241-1.9 13.72-6.544 16.054-8.088l19.159-12.672 18.034-.059c2.029-.018 4.047-.133 6.076-.162l22.026.012c2.532.26 5.041-.15 7.568-.046 2.996.113 6.184-.188 9.105-.214 17.217-.001 34.425.614 51.632 1.122.923.028 18.786 12.976 23.31 15.176 1.306.635 1.225.202 2.549 1.006.555.341 1.07.734 1.735.832.063.006.139.035.191.081 1.075.838 2.405 1.122 3.642 1.584l2.891 1.699c4.833 2.177 8.143 4.635 12.337 7.036 1.515.861 2.96 1.827 4.388 2.821.717.503 1.527.879 2.284 1.341l19.222 11.921c1.399.844 2.844 1.613 4.249 2.457l15.066 9.435c1.59 1.301 3.526 2.023 5.203 3.191.734.508 1.509.965 2.284 1.411 3.675 2.127 4.935 6.833 2.82 10.51zm-345.512 48.336c-.285-.968-.688-.488-.769-.52-.672-.265-.29-.893-.532-.763-1.273.681-.014.166-2-.538-.001 0-.664-.072-.734-.376-.169-.734-.302-.283-.492-.335l-5.989-.861-3.954-.885-2.885.283c-.574-.215-6.539.366-6.949.306-.535-.191-2.114-.129-2.815.509l-.48.087c-.191.26-.376.723-.573.59-.07-.058.092.203-.312.243-.142.014-.332.75-1.11.694-.459-.034-.725.802-1.064.665-.706-.286-.673 1.128-1.11 1.353l-.647 1.896.74 3.839c.705 1.834 1.83 2.995 2.012 3.474.31.814 1.804 1.483 2.59 1.648l.931.046c3.645.421 1.72.925 6.949.081l4.457-.792 1.567-.509c2.931-.204 2.064.149 4.874-.509l1.746-.405c.105-.142.083.311.376.023.206-.203 1.99-.11 2.775-.994 4.93-5.558 2.969-5.424 3.492-6.862.295-.495.124-.7-.094-1.388zm29.455-142.558 2.706 4.081 4.787 3.428c.075.081.254.064.347.133l.994.809c.575.189.187.288.509.393 2.008.655 2.798 2.429 4.394 3.266l2.006 1.185c.193-.048-.187.249.237.249.259 0 1.426 1.277 2.584 1.185 7.08-.563 6.235-1.993 6.937-2.428.8-.149.744-.284 1.197-1.11.517-.944-.098-.522-.237-1.191l.266-.595c-1.218-.282-.215.158-.983-1.734-.002-.005-.392-.513-.226-.763.413-.619-.005-.403-.098-.567l-3.434-4.66-2.047-3.301-2.156-1.746c-.247-.565-4.672-4.145-4.92-4.486-1.289-1.771-1.628-1.094-2.648-1.809-.312.063-.763.266-.798.029-.006-.085-.08.212-.387-.029-.127-.1-.702.33-1.237-.266-.292-.325-1.05.087-1.191-.243-.294-.687-1.211.33-1.711.197l-1.775.914-2.208 3.208c-.829 1.789-.899 3.369-1.104 3.816-.314.685-.037 1.566.196 2.035zm288.353 10.447c.939 5.31.751 3.207 1.763 4.55.473.628.353.093.491.671.184.769 2.035 1.499 1.885.809 0-.002.283-.268.636.012.653.518.13-.643.636-.543.924.181 1.813-.773 2.168-.538.62.41.408-.008.573-.104l4.66-3.428 3.301-2.046 1.746-2.157 1.746-1.729 2.729-3.197c.55-.251 1.549-1.362 1.549-2.255l.26-.387c-.052-.312-.26-.763-.023-.804.071-.006-.18-.126.023-.381.12-.151-.32-.693.277-1.237.324-.295-.084-1.06.243-1.191.686-.274-.347-1.296-.208-1.711l-.902-1.775-3.209-2.208c-1.843-.858-3.33-.882-3.816-1.104-.799-.366-2.248.158-2.92.584l-.665.601-2.527 1.717-2.232 2.925c-.417.715-.337 1.038-1.203 1.862-.081.075-.069.249-.133.347l-.81.994c-.187.567-.283.177-.393.503-.656 1.944-2.914 3.253-4.186 5.891-.069.191-.335.179-.26.514.032.176-.281-.168-.266.237.01.259-1.271 1.46-1.174 2.578zm-139.84-70.866c-.113-1.125-.216-2.185.034-3.353.018-.058.11-.173.133-.289.066-.361-.044-.91.26-1.214l.04-.983c.063-.347.231-.694.347-1.041.011 0 .029-.058.035-.116.195-1.212 1.444-1.62 2.203-2.312 1.231-1.124 3.519-1.893 5.249-2.023 1.657-.188.495-.417 2.098.058.053.303.696.042.925.405.337.533 1.648.409 1.347 1.214-.121.323.687.662.671 1.098-.036.969.671.987.682 1.214.019.379.314.221.254.347-.144.174.33.405.595.578.224 1.441.916 1.024.59 3.527-.136 1.048.548 6.861.306 7.458-.251.622.641 2.176.092 4.394-1.066 4.309-1 5.492-1.561 9.365-.004 0 .321.578-.497.578-.071.238-.554 1.74-.988 2.081-.39.306.746.849-.064.925-.67.063-.283.603-.457.925l-1.22.52c-.211.352-.952-.424-1.029-.231l-.954-.058c-.357.027-.5.567-1.752-.463l-3.024-2.312c-2.157-1.869-1.422-3.348-1.781-3.758-.308-.352.131-.287.006-.405l-.607-2.891-.301-4.22-.474-1.503c-.017 0-.075-.116-.029-.116-.3-2.607-.141-2.436-.792-4.798-.006 0-.017-.058-.023-.058z" fill-rule="evenodd"/></svg>