<svg id="ad0d7bf1-c80a-4110-aabb-00e2a5f678c4" viewBox="0 0 64 64" xmlns="http://www.w3.org/2000/svg" data-name="Layer 2"><path d="m34.8973 36.314a16.3473 16.3473 0 0 0 -2.7635-3.6507c-2.3843-2.2758-5.7492-2.6968-8.8562-2.0009a29.8581 29.8581 0 0 0 -9.1719 4.0517c-1.6813 1.0421-3.4657 2.2631-4.3276 4.1134a7.3253 7.3253 0 0 0 -.0242 5.89 6.9871 6.9871 0 0 0 4.43 3.5474c3.4546 1.0893 7.1874.5607 10.6793 1.48 1.6214.4267 2.7318 2.0361 3.8407 3.1683a8.8445 8.8445 0 0 0 5.1209 2.47 5.814 5.814 0 0 0 5.6845-2.9616 6.6268 6.6268 0 0 0 .8727-2.9117 12.3914 12.3914 0 0 0 -1.002-5.1453c-1.1122-2.917-2.9272-5.3769-4.4827-8.0506zm2.7068 13.4568a3.4584 3.4584 0 0 1 -2.2019 2.75 4.9462 4.9462 0 0 1 -4.0556-.8592 19.4232 19.4232 0 0 1 -2.7066-2.6971c-1.8718-1.7666-4.3824-2.1071-6.8329-2.2965-2.4836-.1921-5.237-.1575-7.5631-1.1732-2.7416-1.1972-2.8921-4.597-1-6.6039a17.3206 17.3206 0 0 1 5.0009-3.696 32.4771 32.4771 0 0 1 6.0951-1.9238 5.9983 5.9983 0 0 1 5.5294.9929 11.1692 11.1692 0 0 1 3.3871 4.5006c1.3345 3.0884 4.2482 5.8688 4.4644 9.3151a6.4426 6.4426 0 0 1 -.1168 1.6911zm-9.9513-23.1659a3.0286 3.0286 0 0 0 1.851-.751c.6346-.5838.9978-1.41 1.5892-2.038.7185-.7633 1.51-1.4517 2.2356-2.2076a6.1321 6.1321 0 0 0 1.7377-2.9619 3.5152 3.5152 0 0 0 -1.1172-2.951 4.2886 4.2886 0 0 0 -4.4482-1.03 9.5342 9.5342 0 0 0 -3.8487 2.9087 10.7422 10.7422 0 0 0 -2.0322 5.1623c-.4128 2.3181 1.8878 4.0086 4.0328 3.8685zm-.4762-6.2057a18.4753 18.4753 0 0 1 1.4034-2.3643 2.3415 2.3415 0 0 1 2.8338-.742c.41.18 1.1564.8961.7781 1.3542-.6667.8072-1.4092 1.539-2.151 2.2758a26.1467 26.1467 0 0 0 -2.1389 2.4841 1.0344 1.0344 0 0 1 -1.6215.0311c-.5405-.8697.523-2.2891.8961-3.0389zm6.5169 5.98c-.4419 1.1863-.7436 2.8746.0253 3.9881a3.5558 3.5558 0 0 0 2.9288 1.3658c1.6947.0423 3.78-1.4118 4.9674-2.5161a5.366 5.366 0 0 0 1.7908-5.4523c-.7132-2.5112-3.0706-4.0985-5.5282-2.6768a10.6515 10.6515 0 0 0 -4.1841 5.2912zm4.9258-2.9541c1.168-.6176 1.9788.3958 2.3163 1.4012a1.6311 1.6311 0 0 1 -.3049 1.6473 7.6318 7.6318 0 0 1 -3.3772 2.609.9546.9546 0 0 1 -.8823-.0717c-.5219-.3964-.3794-1.5351-.1421-2.1733a11.6551 11.6551 0 0 1 1.3946-2.4353 2.9141 2.9141 0 0 1 .9956-.9773zm-22.8473 6.9224a7.0044 7.0044 0 0 0 4.9994-4.4358c.8833-2.1842.7425-5.5357-1.8541-6.4845-4.0909-1.4948-7.112 5.0669-6.68 8.282a3.0024 3.0024 0 0 0 3.5347 2.6383zm-.6785-4.7675a28.9455 28.9455 0 0 1 1.39-2.7849c.2433-.4805 1.0727-1.4243 1.5024-.5588a3.2467 3.2467 0 0 1 .203 1.34 4.9132 4.9132 0 0 1 -1.4333 3.48c-.3848.355-1.4049 1.2492-1.8458.6-.3804-.5596-.0285-1.5114.1837-2.0763zm30.9478 13.3377a6.6117 6.6117 0 0 0 2.4473-3.2246 4.6151 4.6151 0 0 0 -.3078-3.5964c-1.2147-2.0858-4.0128-1.5031-5.642-.27a10.064 10.064 0 0 0 -3.31 5.718c-.4117 1.6911 1.3518 3.1759 3.0163 2.9a6.95 6.95 0 0 0 2.0274-.4742 10.305 10.305 0 0 0 1.7688-1.0528zm-3.6238-3.2221a5.3407 5.3407 0 0 1 1.126-1.813 2.05 2.05 0 0 1 .2008-.18 1.7107 1.7107 0 0 1 2-.2383c.762.5663.3668 1.6348-.0771 2.2807a4.41 4.41 0 0 1 -2.9648 1.9319c-1.2705.1625-.5024-1.4169-.2849-1.9813zm5.4139 5.3244c-.3583.271-.61.659-.945.9582-.6227.556-1.405.8141-1.94 1.4788a5.1154 5.1154 0 0 0 -.9542 1.7311 2.6429 2.6429 0 0 0 .298 2.3074c1.3019 1.7623 4.1836 1.038 5.6186-.1156a6.7484 6.7484 0 0 0 2.3741-3.7033 2.3138 2.3138 0 0 0 -.488-1.8949c-.8019-.9626-2.9049-1.5623-3.9635-.7617zm1.499 3.1281a6.7941 6.7941 0 0 1 -1.3577 1.4146c-.4.3182-1.6107.856-1.25-.1757a7.6179 7.6179 0 0 1 1.2644-2.0635c.3751-.487 1.2433-.8859 1.5174-.0409a.9845.9845 0 0 1 -.1745.8655zm-30.5689-28.4268c.7406.2063 1.4127-.4684 1.768-1.0439a10.54 10.54 0 0 0 .7434-1.5191 6.3087 6.3087 0 0 0 .4572-1.569 1.1847 1.1847 0 0 0 -2.0284-1.0771 2.8812 2.8812 0 0 0 -.5774.8614c-.5195 1.024-2.3155 3.804-.3628 4.3477zm25.6805 3.1277a6.474 6.474 0 0 0 2.3849-2.09 2.155 2.155 0 0 0 .2816-.8968c.1454-1.5044-1.31-1.0757-2.0523-.39a6.9683 6.9683 0 0 0 -1.5514 2.8578c-.2448.6771.5419.7009.9372.519zm8.7612 16.5551a4.5676 4.5676 0 0 0 -1.2353 1.9141c-.1065.4653-.0388 1.268.5508 1.3756 1.0619.1934 2.3362-1.8574 2.3333-2.7389a.9142.9142 0 0 0 -1.6488-.5508zm-17.6543-23.3166a5.3213 5.3213 0 0 0 1.1649-1.3546 4.6274 4.6274 0 0 0 .5356-1.4486c.0837-.5533-.1635-.8484-.7281-.64a3.3036 3.3036 0 0 0 -2.0793 2.33c-.0746.35-.2858 1.0048.0545 1.2622.2874.2168.7994.0358 1.0524-.149zm14.8228 15.4261a.9872.9872 0 0 0 -.8588-1.5335 1.199 1.199 0 0 0 -.63.21c-.7579.5032-1.6327 1.7283-1.0777 2.65.6402 1.0632 2.2701-.7755 2.5665-1.3265z"/></svg>