<svg id="Layer_1" enable-background="new 0 0 500 500" viewBox="0 0 500 500" xmlns="http://www.w3.org/2000/svg"><path clip-rule="evenodd" d="m406.347 63.634c-15.165 35.489-30.956 31.978-62.887 43.763v.015c-6.003 2.02-6.688 10.209-1.216 13.206l17.584 9.542c-7.127 11.557-12.612 25.072-23.411 33.567-10.721 7.641-23.748 11.258-35.522 16.977-5.082 2.221-5.648 9.215-1.065 12.212l18.8 11.995c-14.852 21.159-46.329 37.638-71.654 38.761 36.119-64.34 67.716-210.867 162.817-186.502-1.217 2.172-2.331 4.336-3.446 6.464zm-56.553 111.393c-.811-.314-2.078-.552-3.446-.75-8.032 6.433-18.456 10.39-27.82 14.244 4.525 4.029 21.215 9.874 15.253 18.405 0 .025-.051.081-.051.101-16.222 24.271-59.08 48.941-88.275 39.729-8.668 18.029-19.152 37.077-29.847 53.715-1.062-.036-1.076 3.573-3.852 3.76-.242-.351-.051-.699-.051-1.313-.5.101-.078.308-.507-.162-.649-.711-.635-.008-.963-.056-.36-20.15 13.429-38.401 20.167-56.538 7.391-15.507 13.368-35.954 27.62-46.387 0 0 12.162-28.221 12.162-28.221l-8.969.329c4.046.304 1.272.301-.507.973 1.267.35 3.801.177 5.371.431-10.422 1.479-59.55 2.151-72.566 2.929-3.078 10.606-20.462 58.041-22.297 67.802l-.608-.111c-1.259 7.201-10.43 5.196-9.223-1.647l-.557-.101c1.308-7.052-.258-55.065.152-63.323-24.728.174-51.722.231-76.518.365.164 21.113.321 162.302.557 179.595 1.998 17.886 23.502 13.391 36.03 13.768l-.203-.578c-.561-.378-.069-.667-.507-.948-2.753-13.801-1.635-30.921.608-44.492-.049-1.041 1.247-3.11.507-4.074-.045-.432.545.162.709-.948.041-.274-.406-.879.507-1.399.5-.285.94-.892 1.469.117.051-.015.101-.025.101-.04 8.616.689 7.051 19.969 8.208 26.229.544 8.744 2.322 17.453-.1 25.996 31.367-.246 87.332-.295 119.085-.431l23.817-65.943c1.368-3.699 5.473-5.604 9.172-4.257 2.838 1.049 4.662 3.76 4.662 6.648l.253 62.826c28.473 2.668 74.746-8.681 96.079 11.387.423-50.836-.048-102.468 1.723-153.194-.951-17.675 9.927-50.89-16.722-52.909-3.01-.146-19.278-1.096-20.623-1.527zm35.726 240.283c0 1.946.822 3.725 2.078 5.007-.603.271.136 1.958-.557 2.954-.438.728-2.849 5.925-3.446 6.076-4.707 6.888-11.612 13.422-20.422 14.696-.71-16.246 1.143-33.645-1.672-49.636-.326-.359-.762-6.388-1.267-8.377 13.985 1.808 25.947 15.02 25.033 29.28zm-300.601-248.634c5.449-11.754 11.176-17.223 23.817-21.268-.363 7.818.577 14.837 2.483 22.281l-26.756-.101zm338.252-120.767c-99.755-23.095-117.476 53.215-152.682 124.994-26.482-1.661-51.466-1.485-78.799-1.42-4.44.03-4.728 5.666-6.284 8.697 0 0-13.631 35.092-13.631 35.092.037-61.958 7.667-42.051-51.435-45.556 4.242-9.351 2.562-21.685 2.484-31.788-3.886-18.029-52.839 8.969-45.405 31.889-2.686.74-4.662 3.182-4.662 6.086-.039 60.084-.583 124.25-.81 184.181.212 18.013 17.679 30.178 34.813 27.981 36.075-.121 103.787-.152 139.05-.197 4.793-.47 15.29 2.185 17.077-4.692.001 0 12.011-32.487 12.011-32.487v29.964c0 3.897 3.142 7.054 7.044 7.054l69.88-.035c-6.284 21.33-2.44 45.597-1.876 67.554 3.622 14.868 48.977-6.112 43.734-30.957 3.345-.532 5.929-3.441 5.929-6.958h.253c-.685-51.729-.404-103.46-2.129-155.18-.111-21.254-.241-43.118-.81-64.271-1.306-28.312-26.163-26.698-47.38-24.415 11.913-11.154 17.701-26.965 26.705-40.311 4.793-8.253-7.713-12.302-12.821-15.39 41.291-10.476 44.577-26.673 62.987-59.529 3.075-3.396 1.515-9.477-3.243-10.306z" fill-rule="evenodd"/></svg>