<svg id="Layer_1" enable-background="new 0 0 66 66" height="512" viewBox="0 0 66 66" width="512" xmlns="http://www.w3.org/2000/svg"><g><path d="m55.12 16.78c-.41-.24-.9-.24-1.31-.02-.02.01-.04.03-.06.05-.21.05-.41.18-.51.39-4.13 8.86-12.56 14.67-22.54 15.55-9.09.8-18.37-3.35-24.24-10.83-1.08-1.37-2.89-1.64-4.21-.63-1.59 1.21-2.06 2.9-1.32 4.76.58 1.45 1.45 2.66 2.3 3.83.34.46.67.93.98 1.4 1.49 2.26 3.1 4.35 4.79 6.19 7.07 7.75 16.52 11.93 26.8 11.93.76 0 1.52-.02 2.29-.07 9.16-.55 20.49-2.68 26.89-14.45.05-.09.07-.18.08-.27.11-.17.18-.36.21-.56.58-4.93-.06-11.36-10.15-17.27zm5.91 21.37c-4.58-3.55-8.51-9.78-9.57-15.18.6-.79 1.15-1.62 1.66-2.48.14 3.02.82 5.38 2.24 8.03 1.97 3.67 4.48 5.23 7.85 6.46-.68 1.16-1.4 2.22-2.18 3.17zm2.81-4.49c-3.19-1.15-5.41-2.5-7.19-5.83-1.64-3.06-2.21-5.7-2.08-9.67 9.02 5.36 9.74 11.07 9.27 15.5zm-60.71-11.2c.69-.53 1.58-.37 2.17.37.36.46.73.9 1.12 1.34-1.29.66-2.42 1.73-3.24 3.05-.34-.55-.64-1.1-.88-1.71-.51-1.24-.23-2.24.83-3.05zm34.87 25.41c-10.72.64-20.63-3.4-27.92-11.38-1.63-1.78-3.19-3.8-4.64-6-.32-.49-.67-.97-1.02-1.45-.22-.3-.43-.6-.64-.9.79-1.45 1.97-2.59 3.34-3.22 6.17 6.53 15.02 10.06 23.7 9.3 5.62-.5 10.77-2.49 15.01-5.66 1.07 5.59 4.36 11.42 8.6 15.16-5.25 2.98-11.2 3.84-16.43 4.15zm17.3-4.66c-.02-.02-.03-.05-.05-.06-4.29-3.7-7.61-9.65-8.55-15.26 1.45-1.17 2.78-2.48 3.97-3.93 1.31 5.4 5.21 11.41 9.72 14.93-1.56 1.76-3.27 3.19-5.09 4.32z"/><path d="m56.76 37.83c-.42-.51-.85-1.05-1.37-1.57-.13-.13-.33-.18-.5-.12-.18.06-.3.22-.33.4-.08.66-.24 1.22-.41 1.82s-.34 1.23-.44 1.96c-.02.15.04.31.15.42.09.09.21.13.34.13.03 0 .06 0 .09-.01.49-.09 1.13-.22 1.77-.36.63-.13 1.27-.27 1.75-.35.18-.03.33-.16.38-.33.06-.17.01-.36-.12-.49-.5-.49-.89-.98-1.31-1.5zm-.91 1.71c-.36.08-.72.15-1.06.22.08-.39.19-.76.29-1.14.09-.31.18-.63.26-.97.22.26.44.52.65.79.24.3.49.61.76.91-.28.07-.59.13-.9.19z"/><path d="m54.52 35.42c.07-.17.05-.36-.07-.51-.42-.51-.71-1.13-1.01-1.78-.32-.68-.64-1.38-1.14-1.99-.12-.14-.31-.21-.49-.16-.18.04-.32.19-.36.37-.14.64-.36 1.22-.59 1.84-.24.62-.48 1.27-.63 1.98-.03.15.01.31.11.42.09.11.23.17.37.17h.03c.48-.03 1.07-.03 1.65-.02.61 0 1.23.01 1.72-.02.17-.02.33-.14.41-.3zm-2.14-.67c-.2 0-.4 0-.59 0-.16 0-.31 0-.46 0 .12-.41.28-.81.43-1.23.11-.3.23-.6.33-.92.16.3.3.61.45.93.19.41.38.82.61 1.22-.25.01-.5.01-.77 0z"/><path d="m51.2 30.53c.16 0 .32-.08.41-.22.1-.15.11-.35.02-.51-.31-.55-.52-1.19-.74-1.85-.23-.68-.46-1.39-.81-2.02-.09-.17-.27-.26-.47-.25-.19.02-.36.14-.42.32-.21.58-.49 1.15-.79 1.75s-.61 1.22-.83 1.86c-.05.14-.03.3.05.42.08.13.21.21.36.23.44.05 1.02.09 1.6.13.57.04 1.14.08 1.57.13.01.01.03.01.05.01zm-1.55-1.11c-.32-.02-.63-.05-.92-.07.17-.38.36-.77.55-1.16.13-.26.26-.52.38-.79.1.28.2.56.3.86.13.41.27.82.43 1.22-.24-.02-.49-.04-.74-.06z"/><path d="m26.36 43.37c-3.5-1.09-6.39-2.82-8.27-4.31-1.9-1.48-2.89-2.62-2.98-2.54-.03.03.18.35.61.87.44.52 1.12 1.25 2.05 2.05 1.84 1.61 4.78 3.47 8.38 4.59 3.59 1.14 7.02 1.36 9.46 1.34 2.45-.03 3.94-.27 3.93-.35-.01-.11-1.51-.04-3.93-.14-2.41-.1-5.76-.4-9.25-1.51z"/><path d="m61.01 29.18c.18 0 .16-1.85-.9-3.81-1.04-1.98-2.63-2.97-2.73-2.81-.13.16 1.15 1.3 2.11 3.14 1 1.81 1.32 3.51 1.52 3.48z"/></g></svg>