<svg id="Layer_1" enable-background="new 0 0 55 55" height="512" viewBox="0 0 55 55" width="512" xmlns="http://www.w3.org/2000/svg"><g id="_x39_3"><path d="m51.0578957 19.2121353c-.3844604-.2965088-.9193115-.4117432-1.3821411-.4176025-.9512329.0228271-1.623291.4415283-2.1985474.8525391-.5704956.4318848-1.0418091.9299927-1.4469604 1.4983521-.8878784 1.2391968-1.0264893 2.5764771-1.2278442 3.7700806-.1281738.8966675-.2525024 1.7529297-.4857788 2.5401001.164856-1.2285767.2579346-2.4613037.2927856-3.6941528.0529175-1.9317017-.0061035-3.8656616-.1983643-5.7869263-.0981445-.9603271-.2127686-1.9191284-.3703613-2.8720703l-.2530518-1.4263306c-.0864868-.4938965-.2061157-1.0101318-.4220581-1.5303955-.2148438-.510498-.5131226-1.0692749-1.0422974-1.4595337-.512085-.3897705-1.204834-.5584717-1.7971802-.4390259-.2506714.0508423-.4919434.1506348-.7120972.2810059-.0566406-.4759521-.1453247-.9794312-.34198-1.5296631-.1790771-.4885866-.494934-1.0053717-.9274291-1.394776-.4304199-.3932495-1.0475464-.7201538-1.7478027-.729187-1.140831-.0190253-2.2606697.7859359-2.7506714 2.0717168-.1326294.3720093-.1923828.7305298-.2271729 1.0811768-.2432251-.0864868-.499939-.149292-.7751465-.152832-.6990967-.0117188-1.3307514.2877808-1.7756367.6704712-.4503174.3890991-.7703857.8640747-.9750977 1.4011841-.378479 1.0615234-.2767944 2.050415-.1618042 2.8851929.0213013.1349487.0410156.2680664.0619507.402771-.1094971-.0349731-.2097778-.0859375-.3269653-.1054688-.4909058-.0827637-1.0079956.0053711-1.4310303.2026978-.3735962.1813965-.6771851.4258423-.9351807.7039795-.2579956-.2781372-.5616455-.522583-.9352417-.7039795-.4230347-.1973267-.9401245-.2854614-1.4310913-.2026978-.1171875.0195313-.2174683.0704956-.3269653.1054688.0209351-.1347046.0406494-.2678223.0619507-.402771.1150513-.8347778.2167358-1.8236694-.1617432-2.8851929-.4931297-1.2934542-1.6164398-2.0906706-2.7507324-2.0716553-.2752075.00354-.5319214.0663452-.7751465.152832-.03479-.350647-.0945435-.7091675-.2271729-1.0811768-.4915867-1.2899394-1.6133766-2.090683-2.7506714-2.0717168-.7002563.0090332-1.3173828.3359375-1.7478027.729187-.4324951.3894043-.7483521.9061894-.9274292 1.3947759-.1966553.550293-.2853394 1.053894-.342041 1.5299072-.2186279-.1294556-.4580078-.2289429-.7086182-.2805176-.59198-.1204834-1.2850342.0470581-1.7979126.4362183-.5300293.3895264-.8285522.9485474-1.0439453 1.4590454-.2163086.5204468-.3360596 1.0366211-.4227295 1.5308228l-.2531128 1.4265137c-.1577148.9530029-.2722778 1.9119873-.3704834 2.8724365-.1924438 1.9215088-.2514038 3.8557129-.1986084 5.7877197.0348511 1.2332153.1279297 2.4663086.2928467 3.6952515-.2333374-.7872925-.357605-1.6436768-.4857788-2.5404053-.201416-1.1936035-.3399658-2.5308838-1.2278442-3.7700806-.4052124-.5683594-.8764648-1.0664673-1.4470215-1.4983521-.5751953-.4110107-1.2472534-.8297119-2.1984863-.8525391-.4628296.0058594-.9976807.1210938-1.3821409.4176025-.4060059.2659912-.6890869.6269531-.8876343.96698-.4575806.7020874-.5788574 1.5836182-.5130615 2.3173828.1277466 1.5184326.880249 2.6981812 1.3065186 3.7004395.9580686 1.8806763.479614 4.2288818.776428 6.8479004.0861206.6528931.2330933 1.3237305.4863281 1.9735107.7503667 1.8837204 2.2078905 3.2122231 3.036438 4.6397095 1.0567017 1.9185791 1.4384766 4.3273926 1.1888428 6.6173706-.006897.114502-.0498657.3380737-.020752.5662231.026123.2194214.1033325.4312744.2219849.6135254.2337646.3668213.6469116.6102905 1.0689697.6320801.6843262-.0189819 1.2298584-.06073 1.8516235-.1018066 1.2075195-.0770264 2.4150391-.1707153 3.6225586-.2756348-2.6873379-.2333641-4.0349026-.2970657-5.3932495-.3894043-.2642412-.0497818-.4562206-.288208-.449646-.5535889.0001831-.0741577.0250854-.1494141.0622559-.3325195.4967041-2.4602661.3613892-5.1009521-.7772827-7.5012207-.5986328-1.1980591-1.3834229-2.1555786-1.9872437-3.114624-.6252441-.9610596-.9473267-1.8807373-1.034729-2.9884644-.1657267-1.7663727.0931334-3.61553-.2278442-5.4894409-.1072998-.6612549-.3329468-1.362854-.5973511-1.9535522-.5472412-1.1873169-1.1166382-2.1306763-1.1866455-3.0567017-.1362915-.8768921.4520874-1.6809692.843811-1.6419678.2711182-.0279541.7249756.1589966 1.1219482.4359131.4048462.27948.7903442.6521606 1.100708 1.0552368.5897827.7149658.8483276 1.8666992 1.1070557 3.0155029.255127 1.161499.4827881 2.4500122 1.1328735 3.6351929.3181152.5894165.7694092 1.1428833 1.2688599 1.5665894.4960327.4343262 1.0231323.7732544 1.5307617 1.1019897 1.0246582.6361694 1.977417 1.2749023 2.5325928 2.2832642.5595703.9900513.7753296 2.2254028.5048218 3.4086914.4741211-1.119812.477417-2.4614258-.0046387-3.6479492-.465332-1.2259521-1.5319214-2.104126-2.4609985-2.8424072-.8074951-.6280518-1.5130615-1.2468872-1.9595337-2.0136108.3157349-1.6257324.5401001-3.2404785.7418213-4.8520508.6031103-4.8350182.7378149-6.9935741.8864746-8.5049438.0764771-.9497681.1245117-1.9316406.2784424-2.6973877.1806641-.7731323.5368652-1.3405762 1.2813721-1.4065552.234375-.0266113.4846191.0183716.7078857.1233521-.0092773.1022949-.0177612.2068481-.0286865.3068848-.1261597 1.6324463-.2901001 3.2606812-.3792725 4.8972778-.2175903 3.2688599-.364563 6.5455322-.3140259 9.8442993.7769165-3.2063599 1.3563232-6.4347534 1.8651123-9.6710815.2740479-1.6159668.4732666-3.2402344.7102661-4.8603516.1195068-.8224487.168457-1.6281738.3946533-2.1635132.1891479-.5269775.6485596-.8609619.888916-.8296509.2339478-.0502319.7168579.2956543.8903198.7696533.2036743.4881592.1817627 1.1919556.1101074 1.9680786-.0238647.2633667-.0512085.5297241-.0767212.7940674-.2318726.8306274-.2618408 1.5678101-.3363037 2.2512817-.1261597 1.6324463-.2901611 3.2606812-.3792725 4.8972778-.2175903 3.2687988-.364563 6.5455322-.3140259 9.8442993.7769165-3.2063599 1.3562622-6.4348145 1.8650513-9.6710815.2740479-1.6159668.4733276-3.2402954.7103271-4.8603516.1195068-.8224487.168457-1.6281738.3946533-2.1635132.1891479-.5269775.6485596-.8609619.888916-.8296509.2338867-.0502319.7168579.2956543.8903198.7696533.2036743.4881592.1817627 1.1918945.1101074 1.9680786-.1017456 1.1221924-.2148438 2.2547607-.3166504 3.3883667-.1090088.6173706-.1395264 1.1784668-.1890869 1.7197876-.4033813 4.9226685-.7330322 9.8535767-.8625488 14.8067627.9550781-4.8035278 1.7138672-9.6290283 2.3999023-14.4625244.0216064-.1248169.045105-.2493896.0665283-.3742065.0848389-.4641113.1558228-.9282227.2314453-1.3921509.1386108-.5471191.3355713-.984314.6711426-1.2129517.3093872-.2174072.5201416-.2285767.7816162-.0987549.269104.1364136.5487061.4926147.6473999.8485107.2615356.7956543.007019 2.0172119-.1426392 3.2564697l-.4793701 3.6716309-.8601685 7.3556519-.1950073 1.8414307c-.0596313.6332397-.1289063 1.1141357-.2945557 1.6566162-.1604614.5222168-.3787231 1.0262451-.6533813 1.4986572-.2457275.4258423-.7059326.9916992-1.0135498 1.5856934-1.2768555 2.3704834-1.505188 5.1416016-.8786621 7.6373901l.0604248.2340698c.0168457.0718994.0213623.0935059.0245361.1427002.0166283.2761497-.17593.5126343-.4324951.5645142-.4392567.0320892-2.9255009.1804161-5.4778442.4313354 1.2342529.1213379 2.4685059.2203369 3.7027588.310791.1004887.0064392 1.4889774.0954285 1.3884888.0889893.1520996.005188.2930298.0356445.5368652-.003479.4379883-.0709229.8331299-.3681641 1.0247192-.7700195.09729-.2000732.1465454-.4249268.1419678-.6480103.0014648-.1055298-.0245972-.2357178-.0366821-.3152466l-.0315552-.2195435c-.3555908-2.3328247.1047363-4.7702637 1.2861938-6.6956177.291748-.4893188.65271-.8565674 1.0770264-1.4672852.3892822-.5681152.6982422-1.1907349.9202881-1.8417969.2282715-.6296997.3609619-1.3734741.4371338-1.9659424l.2664795-1.8324585.7059937-5.2567749.7059326 5.2567749.2664795 1.8324585c.0761719.5924683.2088623 1.3362427.4371338 1.9659424.2220459.651062.5310059 1.2736816.9202881 1.8417969.4243164.6107178.7852783.9779663 1.0770264 1.4672852 1.1813984 1.925354 1.6417866 4.362793 1.2861958 6.6956177l-.0315552.2195435c-.012085.0795288-.038147.2097168-.0366821.3152466-.0045776.2230835.0446777.447937.1419067.6480103.1916504.4018555.586731.6990967 1.0247803.7700195.2438354.0391235.3847656.008667.5368042.003479.1004868-.0064392 1.4890366-.0954285 1.3885498-.0889893 1.2342529-.0904541 2.4685059-.1894531 3.7027588-.310791-2.5224228-.2479782-4.9203377-.3906097-5.4778442-.4313354-.2544861-.0514603-.449131-.2859764-.4325562-.5645142.0032349-.0491943.0077515-.0708008.0245972-.1427002l.0604248-.2340698c.6264648-2.4957886.3981934-5.2669067-.8786621-7.6373901-.3076191-.5939941-.7678242-1.1598511-1.0135517-1.5856934-.2746582-.4724121-.4929199-.9764404-.6533813-1.4986572-.1657104-.5424805-.2349243-1.0233765-.2945557-1.6566162l-.1950073-1.8414307-.8601685-7.3556519-.4793701-3.6716309c-.1496582-1.2392578-.4041748-2.4608154-.1426392-3.2564697.0986938-.355896.3782959-.7120972.6473999-.8485107.2614746-.1298218.472229-.1186523.7816162.0987549.3355713.2286377.5325317.6658325.6711426 1.2129517.0756226.4639282.1466064.9280396.2314453 1.3921509.0214233.1248169.0449219.2493896.0665283.3742065.6860352 4.8334961 1.4448261 9.6589966 2.3999043 14.4625244-.1295166-4.953186-.4592285-9.8840942-.8625488-14.8067627-.0495605-.5410767-.0801392-1.1019287-.1890259-1.7189941-.1018066-1.1338501-.2149658-2.2667236-.3167114-3.3891602-.0716572-.7761841-.0935688-1.4799194.1101074-1.9680786.1734619-.473999.6564331-.8198853.8903198-.7696533.2403564-.031311.6997681.3026733.888916.8296509.2261963.5353394.2751465 1.3410645.3946533 2.1635132.2369995 1.6200562.4362793 3.2443848.7103271 4.8603516.508728 3.2362671 1.0881348 6.4647217 1.8650513 9.6710815.0505371-3.2987671-.0964355-6.5755005-.3140259-9.8442993-.0891724-1.6365967-.2531128-3.2648315-.3792725-4.8972778-.0744629-.6834717-.1044312-1.4206543-.3363037-2.2512817-.0255127-.2643433-.0528564-.5307007-.0767212-.7940674-.0716553-.776123-.0935669-1.4799194.1100464-1.9680786.1735229-.473999.6564331-.8198853.8903809-.7696533.2403564-.031311.6997681.3026733.888855.8296509.2262573.5353394.2752075 1.3410645.3947144 2.1635132.2369995 1.6201172.4362183 3.2443848.7102661 4.8603516.5087891 3.2363281 1.0881958 6.4647217 1.8651123 9.6710815.0505371-3.2987671-.0964355-6.5754395-.3140259-9.8442993-.0891724-1.6365967-.2531128-3.2648315-.3792725-4.8972778-.0109253-.1001587-.0194702-.204834-.0287476-.3071899.2232666-.1055908.4736328-.1486816.710022-.1228638.7437744.0670166 1.0993652.6348267 1.2797241 1.4083252.1535034.7659302.2017822 1.7479248.2781372 2.6973877.1411018 1.4345055.2817726 3.6571388.8864136 8.5037842.2017212 1.6112671.4260254 3.225769.7417603 4.8512573-.4464111.7667236-1.1520386 1.3855591-1.9595337 2.0136108-.9290771.7382813-1.9956665 1.6164551-2.4609985 2.8424072-.4820557 1.1865234-.4787598 2.5281372-.0046387 3.6479492-.2705078-1.1832886-.0547485-2.4186401.5048218-3.4086914.5551758-1.0083618 1.5079346-1.6470947 2.5325928-2.2832642.5076294-.3287354 1.034729-.6676636 1.5307617-1.1019897.4994507-.4237061.9506836-.9771729 1.2688599-1.5665894.6500854-1.1851807.8777466-2.4736938 1.1328735-3.6351929.258728-1.1488037.5172729-2.3005371 1.1070557-3.0155029.3103027-.4030762.6958618-.7757568 1.100708-1.0552368.3969727-.2769165.8508301-.4638672 1.1219482-.4359131.3917236-.0390015.9801025.7650757.843811 1.6419678-.0700073.9260254-.6394653 1.8693848-1.1866455 3.0567017-.2644043.5906982-.4901123 1.2922974-.5973511 1.9535522-.3225975 1.883358-.0604057 3.7048149-.2278442 5.4894409-.0874023 1.1077271-.4094849 2.0274048-1.034729 2.9884644-.6038208.9590454-1.3886108 1.9165649-1.9872437 3.114624-1.1386719 2.4002686-1.2739868 5.0409546-.7772827 7.5012207.0371704.1831055.0620728.2583618.0621948.3325195.0020752.0812988-.0147705.1642456-.0505371.2411499-.071167.154541-.21698.2781372-.3991089.312439l-1.7706299.1137695c-1.2075195.0770264-2.4150391.1707764-3.6225586.2756348 1.2075195.1049194 2.4150391.1986084 3.6225586.2756348.6217651.0410767 1.1672974.0828247 1.8515625.1018066.4221191-.0217896.8352661-.2652588 1.0690308-.6320801.1186523-.182251.1958008-.394104.2219849-.6135254.0291138-.2281494-.013855-.4517212-.020752-.5662231-.2496338-2.289978.1321411-4.6987915 1.1888428-6.6173706.8239365-1.4197044 2.2904549-2.7667046 3.036377-4.6397095.2532959-.6497803.4002686-1.3206177.4863892-1.9735107.296814-2.6190186-.1816406-4.9672241.7764282-6.8479004.4262695-1.0022583 1.178772-2.1820068 1.3065186-3.7004395.0657959-.7337646-.055542-1.6152954-.5130615-2.3173828-.1985472-.3400269-.4816283-.7009888-.8876341-.96698z"/></g></svg>