<svg id="Layer_1" enable-background="new 0 0 66 66" height="512" viewBox="0 0 66 66" width="512" xmlns="http://www.w3.org/2000/svg"><g><path d="m63.123 32.851c-5.879-2.612-12.328-4.528-19.166-5.713 2.052-3.229 3.979-6.517 6.085-10.148.237-.409-.178-.891-.613-.717-3.755 1.453-7.464 3.357-11.045 5.637-1.26-6.355-2.913-12.651-4.58-18.959-.12-.459-.755-.498-.94-.074-2.611 5.898-4.531 12.344-5.724 19.161-3.352-2.128-6.734-4.103-10.147-6.091-.404-.235-.89.169-.718.612 1.448 3.74 3.352 7.451 5.637 11.046-6.42 1.275-12.722 2.935-18.959 4.58-.452.118-.509.748-.074.94 5.909 2.612 12.358 4.532 19.172 5.724-2.074 3.276-4.113 6.753-6.092 10.157-.239.408.177.892.612.718 3.779-1.464 7.488-3.367 11.046-5.635 1.288 6.523 3 12.954 4.58 18.956.119.455.75.507.94.075 2.611-5.91 4.531-12.358 5.725-19.173 3.474 2.201 6.995 4.25 10.156 6.092.405.238.889-.171.718-.612-1.453-3.753-3.361-7.463-5.645-11.045 6.506-1.293 12.884-2.988 18.958-4.59.452-.119.505-.749.074-.941zm-14.676-15.106c-1.895 3.259-3.665 6.256-5.55 9.205-1.147-.193-2.516-.383-3.685-.523-.178-1.106-.427-2.492-.618-3.481 3.199-2.061 6.507-3.806 9.853-5.201zm-21.494 5.347c-.204 1.248-.393 2.587-.525 3.676-1.16.194-2.321.403-3.481.627-2.064-3.209-3.809-6.515-5.199-9.85 3.044 1.774 6.168 3.607 9.205 5.547zm-9.398 25.16c1.775-3.047 3.609-6.172 5.549-9.216 1.142.186 2.486.382 3.664.524.194 1.159.438 2.493.636 3.494-3.177 2.052-6.482 3.796-9.849 5.198zm10.138-9.225c-.036-.221-.214-.39-.436-.416-7.701-.895-15.514-2.842-22.647-5.828 7.582-1.998 14.656-3.821 22.352-5.091.221-.036.39-.214.416-.436.885-7.632 2.818-15.469 5.829-22.65 1.76 6.671 3.893 14.836 5.079 22.351.035.222.214.393.437.419 7.376.857 14.191 2.565 20.144 4.815l-.936.936c-.281-.281-.692-.86-.953-.6s.319.672.6.953c-.144.144-.806.736-.793.92-.126.032-.254.063-.38.096l-.842-.843 1.157-1.157c.232-.232-.119-.588-.354-.354l-1.158 1.158-.206-.206c-.234-.234-.586.121-.354.354l.206.206-1.126 1.125-.955-.955.934-.934c.232-.232-.119-.588-.354-.354l-.935.935c-.189-.189-.343-.383-.541-.187-.197.197 0 .353.188.541l-1.44 1.44c-.116-.116-1.289-1.344-1.45-1.356l.702-.702c.232-.232-.119-.588-.354-.354l-2.072 2.072c-.242-.242-.596.112-.354.354l-1.133 1.133c-.098.098-.098.256 0 .354.097.097.255.098.354 0l1.133-1.133.839.839c-.765.173-1.532.33-2.299.493.015-.078.005-.158-.056-.219l-.625-.625 1.391-1.391c.232-.232-.119-.588-.354-.354l-1.391 1.391c-.28-.28-.688-.855-.948-.595s.315.668.595.948c-.104.104-1.313 1.282-1.364 1.419-.029.006-.017.004-.052.011-.073-.117-1.023-1.05-1.12-1.148.28-.28.862-.693.601-.954s-.673.32-.954.6l-.121-.121c-.23-.232-.589.118-.354.354l.121.121-1.06 1.061-.97-.97c-.098-.098-.256-.098-.354 0s-.098.256 0 .354l.97.97-.383.383c-1.105.186-.874.048-1.141 2.044l-.855-.855 1.315-1.315c.232-.232-.119-.588-.354-.354l-1.315 1.315c-.17-.17-.315-.339-.504-.15s-.02.334.15.504l-.742.742c-.059.059-.07.137-.058.214-.281-.068-.391.245-.231.404l1.695 1.695-1.188 1.188-.845-.845c-.232-.232-.588.119-.354.354l.845.845-1.377 1.377c-.223-.223-.442-.533-.664-.311-.098.098-.098.256 0 .354l.311.311c-.282.282-.875.703-.612.966.049.049.112.073.177.073.161 0 .668-.564.789-.686l1.207 1.207c-.116.082-1.689 1.667-1.79 1.768l-1.132-1.132c-.232-.232-.588.119-.354.354l1.132 1.132-.921.921c-.273-.273-.646-.8-.9-.546s.274.627.546.9l-.959.959c-.234.234.121.586.354.354l.959-.959 1.782 1.782-1.334 1.334-1.339-1.339c-.232-.232-.588.119-.354.354l1.339 1.339-.994.994c-.089.089-.087.225-.012.323-.184-.184-.368-.31-.5-.045-1.405-5.499-2.702-11.031-3.642-16.743zm30.237-5.193.212.212c-.192.05-.383.101-.575.151zm-6.819 1.975c-.028-.083.008-.052-.131-.191l1.44-1.44.955.955-.171.171c-.696.172-1.394.337-2.093.505zm-2.246.527-1.058-1.058 1.11-1.11c.012.161 1.239 1.333 1.356 1.45-.11.11-.382.352-.425.487-.328.077-.654.155-.983.231zm6.975-1.697c-.562.144-1.125.284-1.689.426l1.058-1.058zm-15.028 3.337-.159-.159 1.063-1.063.898.898c-.599.114-1.201.217-1.802.324zm4.732-.919c-.493.103-.984.21-1.478.309l.893-.893zm-9.315 14.196-1.855-1.854c.099-.099 1.688-1.676 1.768-1.79.206.206.605.714.847.591-.234 1.029-.49 2.045-.76 3.053zm-.557 1.991-.436-.436c.248-.248.664-.538.424-.778s-.53.176-.778.424l-1.782-1.781.921-.921c.106.106 1.927 1.966 2.073 2.003-.136.499-.277.996-.422 1.489zm-1.586 4.82-.503-.503 1.055-1.055c-.179.523-.364 1.042-.552 1.558zm-2.666-1.958 1.456 1.455-.858.858c-.202-.769-.4-1.538-.598-2.313zm.457-.25c.122.093.24.071.323-.012l.994-.994 1.196 1.196-1.162 1.162zm2.998-.064c-.018-.007-.034-.019-.053-.022l-1.274-1.274 1.334-1.334.626.626c-.203.673-.414 1.341-.633 2.004zm.082-10.075 1.377-1.377 1.218 1.218c-.151.77-.31 1.535-.48 2.294-.078-.11-2.02-2.04-2.115-2.135zm1.731-1.731 1.188-1.188c.044.044.058.061.158.078-.11.695-.239 1.381-.372 2.085zm1.519-2.226-.331.331-1.547-1.547c.152-.023.774-.691.884-.801l1.124 1.124c-.041.291-.084.59-.13.893zm-5.413 19.63c-.21-.797-.42-1.606-.63-2.41l1.065-1.065.667.667c-.352.946-.716 1.886-1.102 2.808zm6.251-18.497c.218-1.38.394-2.662.517-3.673 1.169-.195 2.331-.404 3.492-.627 2.066 3.197 3.813 6.503 5.209 9.85-3.048-1.775-6.173-3.609-9.218-5.55zm19.658-8.993-.419-.419 1.097-1.097c.678.262 1.351.531 2.016.81-.893.236-1.795.47-2.694.706z"/><path d="m30.093 28.341c.026-.44.051-.881.084-1.321.068.025.393.152.46.152.278 0 .347-.39.086-.484l-.5-.182c.055-.663.116-1.325.187-1.987.057.016.341.103.394.103.286 0 .347-.41.068-.49l-.404-.116c.072-.637.151-1.272.238-1.907.105.075.396.311.516.311.241 0 .343-.312.146-.453l-.582-.415c.082-.565.168-1.129.261-1.692.096.057.349.226.45.226.253 0 .345-.336.128-.465l-.488-.289c.107-.619.22-1.237.341-1.853.219-.068.231-.263.084-.425.137-.681.283-1.359.437-2.036.147.174.27.346.473.207.287-.201-.078-.555-.341-.789.201-.852.411-1.701.638-2.546.036-.134-.043-.271-.176-.307-.136-.033-.271.043-.307.176-.211.784-.409 1.572-.597 2.362-.342-.196-1.001-.5-1.078-.107-.026.136.062.267.197.293.275.054.534.167.765.322-.151.653-.296 1.308-.431 1.965l-.502-.553c-.226-.245-.591.093-.371.336l.752.826c-.122.618-.238 1.236-.347 1.856-.324-.192-.8-.597-.976-.287-.07.119-.031.272.088.342l.798.473c-.092.545-.178 1.091-.259 1.638l-.124-.089c-.271-.194-.557.217-.291.406l.335.239c-.098.697-.187 1.395-.267 2.094l-.74-.212c-.311-.096-.459.388-.137.48l.818.234c-.07.649-.132 1.299-.187 1.949-.256-.093-.504-.22-.601.048-.106.292.263.361.555.468-.037.471-.065.942-.094 1.413-.314.001-.359.419-.03.487-.019.349-.139.833.202.85.325 0 .275-.42.293-.748.382.079 1.012.325 1.086-.031.079-.364-.656-.391-1.05-.472z"/><path d="m25.727 36.76c.251-.279.731-.654.467-.891-.102-.091-.261-.084-.353.019l-.661.734-1.122-.284c.381-.345.838-.61 1.328-.76.132-.041.206-.181.166-.313-.175-.576-1.635.49-2.051.932l-1.479-.374 1.333-.935c.27-.191-.015-.598-.287-.41l-1.686 1.183-1.734-.439.873-.775c.245-.215-.084-.595-.332-.373l-1.126 1-1.796-.455c.279-.326.61-.607.986-.82.12-.068.162-.221.095-.341-.259-.458-1.287.611-1.605 1.028l-1.519-.385 1.05-1.148c.223-.246-.146-.58-.369-.338l-1.231 1.347-2.269-.574c-.312-.088-.448.404-.123.484l2.009.508c-.208.227-.488.448-.261.656.257.236.563-.245.811-.516l1.604.406c-.087.149-.173.299-.241.458-.129.305.33.497.461.195.078-.183.171-.359.277-.527l1.669.423c-.132.117-.123.268-.036.366.197.224.401-.023.622-.218l1.646.417c-.203.143-.404.26-.25.481.2.284.589-.107.89-.318l1.769.448c.059.208.268.241.403.102l1.147.29c-.227.258.151.58.368.338l.179-.199c.049.012.956.247 1.006.247.112 0 .214-.075.242-.188.087-.345-.508-.389-.87-.481z"/></g></svg>