<svg id="Layer_1" enable-background="new 0 0 500 500" viewBox="0 0 500 500" xmlns="http://www.w3.org/2000/svg"><path clip-rule="evenodd" d="m194.839 288.431c19.133-5.584 20.217 25.792 1.123 29.286-13.595 3.341-26.785-11.877-19.99-24.393 1.787-7.226 14.798-11.946 17.125-3.045-.544.779-.252.909-.505.955-.329.061-.146.724-.497.929-.896.524-.1 1.422-1.238 1.605-.522.084-.441.868-.909 1.13-.88.491-.455 1.133-.598 1.272-.269.26.022.381-.054.391-.237.063-.037.486.078.781-3.202 8.881 11.886 8.182 7.735-.449-.358-.091.159-.514.099-.66-.287-.702-1.053-1.388-1.291-2.075-.2-.576-1.109.327-1.016-.454.051-.429-.484-.568-.497-.56-.723.489-1.307-1.513-1.307-1.531l.567-.623c-.202-.587.058-.421.086-.998.009-.166-.992-.901 1.089-1.561zm128.067 10.842c1.466 27.351-41.864 22.685-34.745-3.702 1.279-8.279 14.816-15.276 18.078-5.293-.544.779-.258.91-.505.955-.333.061-.144.723-.497.929-.896.524-.103 1.422-1.239 1.605-.519.084-.443.869-.907 1.13-.882.495-.457 1.132-.598 1.272-.271.267.022.38-.054.391-.237.063-.039.486.076.781-3.196 8.887 11.886 8.175 7.737-.449-.357-.091.157-.51.097-.66-.292-.735-1.021-1.301-1.289-2.075-.2-.576-1.111.326-1.018-.454-.179-1.111-1.243.314-1.802-2.09l.567-.623c-.202-.587.058-.422.086-.998.025-.506-1.593-.817 3.066-2.175 7.141-2.29 12.794 5.922 12.947 11.456zm-128.067-103.269c18.099-5.456 19.553 22.789 4.979 27.866-13.916 7.607-31.535-8.841-23.847-22.968 1.786-7.222 14.785-11.95 17.125-3.05-.542.795-.256.917-.505.955-.319.05-.15.734-.497.929-.869.487-.119 1.445-1.24 1.61-.517.076-.431.864-.909 1.124-.866.472-.462 1.147-.596 1.277-.269.26.022.381-.054.391-.237.063-.037.486.078.781-3.186 8.953 11.894 8.111 7.737-.449-.361-.094.155-.517.097-.66l-1.291-2.075c-.198-.58-1.108.325-1.016-.454-.192-1.126-1.233.327-1.804-2.09l.567-.628c-.212-.526.061-.446.086-.998.009-.174-.997-.874 1.09-1.561zm128.067 10.842c1.557 23.001-32.902 25.57-35.506 2.803-.213-6.068 2.278-14.656 10.359-16.465 3.234-.386 7.717.189 8.48 4.667-.541.794-.262.918-.505.955-.323.05-.148.733-.497.929-.869.486-.122 1.445-1.239 1.61-.519.077-.437.867-.907 1.124-.873.479-.462 1.143-.598 1.277-.271.268.019.381-.054.391-.237.063-.039.486.076.781-3.372 8.842 12.037 8.071 7.737-.449-.356-.092.154-.516.097-.66-.282-.709-1.052-1.381-1.289-2.075-.198-.579-1.11.324-1.018-.454.052-.436-.491-.567-.495-.565-.726.499-1.307-1.515-1.307-1.526l.567-.628c-.212-.526.061-.446.086-.998.023-.507-1.59-.812 3.066-2.17 7.156-2.296 12.795 5.95 12.947 11.453zm-74.347 126.946 1.109 2.692c-.551.818-.258.92-.507.966-.331.061-.141.729-.497.919-.854.453-.121 1.455-1.237 1.605-.504.068-.445.88-.909 1.14-.879.492-.455 1.128-.598 1.267-.267.26.018.371-.052.396-.239.053-.039.48.077.776-3.118 9.202 11.959 7.826 7.737-.454-.356-.084.151-.503.097-.66-.253-.74-1.011-1.267-1.291-2.075-.197-.569-1.108.33-1.016-.443-.154-1.102-1.277.284-1.802-2.101l.567-.612c-.214-.534.061-.466.085-1.003.023-.523-1.58-.815 3.068-2.17 12.354-2.799 19.442 17.439 5.459 26.964-7.383 5.836-19.592 3.522-24.862-4.207-8.402-9.788 1.438-32.224 14.572-23zm1.11-67.21c-.817.812-.374.864-.765.892-.539.038-.37.788-1.029.797-1.118.015-1.672.938-2.08.85-1.481-.321-1.488-.507-2.689-.623-7.671-2.023-12.553-7.751-11.861-15.721 4.546-32.008 49.97-15.449 32.184 11.625-.384.432-.409 1.12-1.279 1.028-.384-.04-3.228 2.792-5.702 2.856-.967.025-2.008 1.587-2.522.871-.529-.737-2.445.72-3.526-.364-1.019-1.022-.953-.886.089-1.573-.355-.376.004-.525-.031-.998-.035-.488-1.197-.143.777-1.763 2.804-2.476 2.84-5.451 4.163-8.552-.135-.418.248-.25.138-.396-.658-10.37-15.949-8.817-5.867 11.071zm0-113.606.567-.618c-.214-.535.059-.453.085-.998.012-.249-1.018-.803 1.091-1.573 15.244-5.647 22.187 19.493 4.98 27.867-12.891 6.974-29.81-6.609-24.802-20.714 1.807-5 4.476-9.083 9.6-9.972 3.217-.378 7.704.169 8.479 4.672-.559.81-.254.928-.507.961-.32.042-.143.74-.497.919-.848.428-.12 1.46-1.237 1.61-.509.068-.444.874-.909 1.135-.875.49-.457 1.13-.598 1.267-.267.259.017.363-.052.401-.239.053-.039.475.077.771-3.282 8.726 11.915 8.211 7.737-.454-.363-.1.159-.484.097-.66-.261-.736-1.009-1.267-1.291-2.075-.192-.55-1.109.323-1.016-.438-.158-1.106-1.298.268-1.804-2.101zm196.05-75.038c-9.135 25.8-19.245 51.29-28.598 77.007-9.762.076-22.233-.146-32.201-.079-2.439.011-3.619 1.731-5.322 3.51-11.726 12.26-20.449 24.37-31.002 37.411-3.166-10.754-7.101-20.912-11.946-31.076 5.754-2.042 17.058-12.21 22.303-15.842 3.223-2.972 10.408-6.582 10.193-11.687.396-9.773.104-20.934.101-30.623 24.428-8.684 52.904-20.363 77.073-30.279-.203.554-.413 1.103-.601 1.658zm-194.407 225.416c-.36 0-.217.101.113.676l-1.594-1.14 1.256-.517c.169.216.338.417.437.734-.072.078-.141.162-.212.247zm91.165-17.14c13.627-77.914-23.269-157.561-85.574-204.671.238 9.442.699 20.35-1.86 28.96-.663 2.564-1.162 1.084-.516 2.698.172.431-.348-.33-.724.702.528.773-1.472 1.953-2.058.955-8.741-.228-7.379-13.904-8.565-19.516.007-5.614-2.143-7.137-.694-15.805-114.431 93.905-119.216 252.661 1.311 343.482.253-8.236-4.302-18.954.192-26.7-14.101-13.401-32.08-30.51-45.925-44.575-9.079-9.314 12.855-20.787 17.842-27.604 7.932-7.57 18.177-15.187 26.736-20.449 6.974-4.168 2.913-1.33 7.027-2.154-10.312 15.543-23.364 30.806-36.024 44.77 10.152 10.24 25.822 25.23 35.795 35.595 7.979-8.292 29.178-27.63 37.257-35.722-13.106-14.291-25.432-27.491-37.028-43.318l1.874-2.465c-.603.186-.359.311.045-1.077-.196-.174-.576.385-.815.359 11.516-16.192 23.517-31.515 37.348-45.551-12.831-12.007-25.336-25.073-38.269-36.952-7.769 8.297-27.549 28.64-35.708 36.999 13.191 13.907 27.35 30.482 35.525 47.362-1.926-1.008-.796.128-1.722-.739-1.139-1.067-.701.113-2.126-1.13-3.43-2.989-2.151-.323-6.818-5.041-62.477-51.903-49.344-32.328.597-87.312-13.666-12.975-28.483-26.92-41.535-40.42-3.11-3.175-2.98-7.95-.017-10.769 4.003-3.697 14.075-13.195 17.86-16.834 7.939-7.579 18.173-15.181 26.734-20.45 6.998-4.183 2.865-1.304 7.027-2.154-10.292 15.525-23.367 30.796-36.024 44.775 10.156 10.232 25.819 25.233 35.795 35.59 7.984-8.288 29.182-27.626 37.257-35.722-13.067-14.278-25.465-27.46-37.028-43.313l1.757 1.161c-.328-.571-.475-.676-.113-.676.07-.079.14-.164.212-.243-.169-.549-.548-.755-.771-1.24 13.98 8.811 26.264 18.803 38.358 30.475 3.357 4.591 16.599 11.113 10.771 17.752-13.143 14.055-27.086 27.534-40.165 41.624 10.613 10.365 22.35 23.379 32.729 34.254 8.409 8.877 15.725 12.105 3.094 22.181-13.472 13.142-29.847 26.907-43.921 38.821 14.51 10.188 27.471 19.871 39.71 32.418 2.91 3.582 14.298 9.925 8.552 15.551-13.281 13.78-31.919 32.947-45.018 46.681l.301.75c.55.264.06.504.497.702-.031.279.262.528.594.797 1.06 7.232 1.502 15.96.274 23.058 43.313-33.173 76.962-81.545 85.947-135.87zm-3.771 59.154c10.253 12.462 32.958 36.255 44.846 48.327 0 0 20.142 21.48 20.142 21.48 1.588 2.451-1.543 4.14-2.911 5.743-2.421 1.947-4.598 6.223-7.761 6.435-21.765-19.515-43.564-44.409-67.505-61.024 4.459-7.261 8.384-14.621 11.995-22.356zm-167.22 23.443c-16.328 9.142-32.554 27.071-46.476 39.993 0 0-17.527 18.075-17.527 18.075-1.074 1.121-2.474 1.373-3.67.206-4.931-6.147-15.313-9.17-5.588-16.839 19.938-21.178 45.242-43.532 60.999-68.034 4.004 8.891 8.746 17.392 13.902 25.639-.549.311-1.095.638-1.64.96zm-21.622-179.358c-8.921-9.999-20.716-22.298-29.943-32.65-2.835-5.052-12.065-2.678-16.851-3.04 0 0-20.179.116-20.179.116-7.156-18.572-20.831-57.719-28.223-76.364 21.987 8.464 53.494 20.215 75.483 28.828.168 9.764.284 21.164 1.106 30.86.96 4.376.068 2.346 4.264 6.372 8.599 8.103 14.635 14.033 24.582 21.49-3.977 8.371-6.96 15.98-9.752 24.81-.163-.137-.318-.285-.487-.422zm106.424-112.085c-.204-.037-.398-.079-.596-.116l-.031-.243c-.438-.199.052-.451-.497-.702l-.19-.243zm208.687-16.027c-4.628-9.483-15.285-.919-22.264.886-24.959 9.631-58.304 22.929-83.399 32.502-8.41 4.232-3.211 16.424-3.737 23.992-.052 5.543 1.144 11.267 1.267 16.903-7.773 8.094-16.148 17.073-22.068 25.222-17.549-35.054-47.012-64.761-79.952-85.538-.205-1.516-.595-.26-.72-2.212-.012-.198-1.012-.298-1.229-.876-.122-.325-.85-.231-.885-.48l-.926-.401c-37.836 17.399-69.571 51.456-88.517 88.748-5.472-8.323-12.95-17.349-19.14-25.027.243-6.594 1.158-21.143 1.109-27.614.512-4.759 1.149-10.847-4.419-12.907-27.711-11.476-65.81-25.332-94.047-35.701-5.692-3.609-13.927 1.009-11.015 7.94 12.939 31.716 25.481 64.004 38.337 95.778.819 2.032 2.842 3.436 5.16 3.362 10.132-.522 23.622-.75 33.896-1.251 11.532 11.14 23.867 20.23 36.385 30.279-14.132 46.408-11.174 97.605 8.131 142.101-23.897 20.476-48.582 45.326-72.017 67.099-8.323 7.764-5.967 20.725 3.036 27.365 6.9 8.879 19.415 15.612 29.175 6.64 20.041-20.228 42.174-42.241 59.727-64.517 7.014 13.21 63.162 75.551 76.561 68.383 27.381-18.711 50.836-42.946 68.87-70.595 13.936 24.098 39.412 45.846 59.021 65.738 8.569 8.397 20.547 4.883 27.19-3.707 5.39-6.184 10.639-8.868 9.779-18.897-.992-9.072-14.146-17.006-19.523-23.618-18.404-17.292-37.663-38.308-59.126-51.653 19.263-43.286 22.827-93.377 10.234-139.002 13.385-11.711 23.909-22.456 37.539-34.349l33.376 1.019c2.671.056 5.172-1.521 6.201-4.16 5.645-14.515 21.782-53.967 27.912-68.894 1.904-7.259 12.301-26.735 10.078-32.558z" fill-rule="evenodd"/></svg>