<svg id="Layer_1" enable-background="new 0 0 68 68" height="512" viewBox="0 0 68 68" width="512" xmlns="http://www.w3.org/2000/svg"><g id="_x31_26"><path d="m6.3097119 11.9452839c6.973206 17.3582153 14.7094116 34.5111084 23.414978 51.0685425.5845947 1.1118774 1.2543945 2.2991943 2.4050903 2.8024902 2.2016258 1.5755997 4.5382576-.9864883 3.4136963-3.0971069-3.4855347-6.5408936-6.7573242-12.9745483-9.8566895-19.3516846.7299747.0428391 1.2812195-.487278 1.7033691-1.0853271.5269165-.744751 1.1074829-1.4446411 1.7145386-2.1196899 2.2929688-1.8828125 4.7783813-3.4853516 7.5443726-4.694458 1.5762825-.6889877 3.0005722-.6664696 3.3300781.9640503-.0143433.1959839-.0228882.395874-.0108643.6054688.0136719.2298584.0583496.4563599.1181641.6799316.0137329.3634644.0336304.7260132.1067505 1.0633545.3573799 1.6487465 2.103756 3.1999359 5.6260986 2.8928223 5.1642036-.4502106 10.2882881-4.0335426 15.4685669-2.4786377 1.1690025.3508987 2.7675819 1.1817207 3.9942055.2453613.8584747-.3213272 1.0836182-1.1379929.7252808-1.7231445-4.9736366-8.1440411-6.4209023-18.2080059-4.2998085-29.9121075.1909256-1.0594082-1.0642319-1.7383094-1.9814453-1.21875-6.1025391 3.4472656-13.2158203 4.8325195-20.0214844 3.9082031-1.2783203-.1655273-3.1435547-.9814453-3.4160156-1.6586914-.3231888-.8195133.2718544-2.1124797-.0058594-3.3945313-.3330078-1.4829102-1.8671875-2.612793-3.5742188-2.6279297-.3946533.0791142-1.6887665-.1196363-3.8798828 1.5366211-1.0074768.7506261-1.9152126 1.67134-2.9179688 2.3398438-1.8203125 1.2270508-4.6767578 2.0107422-7.328125 1.9575195-2.4035988-.0340843-5.5749493-1.8542242-7.9786367-.7670898.7381296-1.4417672.6256533-3.71526-.3670654-4.8632813-1.4881386-1.723815-4.7280458-1.9995448-6.6670541.6187114-1.1781616 1.0124512-1.8921507 2.5877686-1.7135008 4.1396484.2529295 2.1972046 2.2443846 4.0618287 4.45343 4.1698609zm5.1366582-.6115112c2.2764282 2.4106445 4.1323853 4.7987671 5.6117544 7.9235229 3.0533733 6.445919 4.4439831 10.7597408 5.5146484 13.5981426 2.1126003 5.6175957 1.7549305 6.0240669 1.6759033 7.5255737-4.6669311-9.7542705-8.9094838-19.3876933-12.8023061-29.0472392zm48.6898794-3.258606c-1.9941406 11.5390625-.5810547 21.5463867 4.1992226 29.7665997-4.4228554-1.8520508-9.4218788-1.9589844-13.8056679-.277832-2.2963715.8782883-4.7995377 2.4300041-7.1455078 1.644043-1.0722656-.3632813-1.8613281-1.2919922-1.9179688-2.2587891-.0383415-.6600533.2384262-1.4860802-.0259399-2.4117432.0802612-.1374512.128418-.2952271.1069946-.46521-.8984985-7.1174297-2.7946167-15.4106426-4.6040649-22.8815289.9421387.4476929 1.9633179.7130127 2.5630493.7907104 7.006836.9545899 14.3183594-.4321288 20.6298828-3.9062499zm-41.5751953 2.0722656c2.9160156.0375977 6.1308594-.8286133 8.1845703-2.2114258 1.9301872-1.284339 3.7282276-3.6225586 5.9501953-3.6225586h.0048828c.8818359.0078125 1.9160156.5551758 2.1171875 1.4511719.2393112 1.0984139-.5659218 2.4694815.2133179 3.8544312.1658745 1.0382433 3.3844681 13.0617542 4.8141479 23.1286602-3.0483322-1.5286026-6.1673965 1.5103645-8.4659424 3.2630005-3.7968178 2.8952827-5.0565758 5.4069748-5.5683594 5.8129883-.2219772-.6238327.0811481-2.4782867.0048828-3.1352539-.2441406-2.1210938-1.0556641-4.2763672-1.8398438-6.3608398-1.0501747-2.7966614-2.4931622-7.2336845-5.5625-13.7124004-1.796875-3.7939453-4.0888662-6.5302734-6.9716787-9.4467773 2.2180921-.5093777 4.5809166.9422987 7.1191398.9790037zm-9.4589834-6.1499023c.6983986.8090739.6203003 3.0402708-.1679688 3.640625-.2666015.203125-.3652343.559082-.2421874.8710937 7.1503906 18.137207 15.5009756 36.1000977 25.5273438 54.9150391v.0004883c.3443069.6431122-.1848412 1.5375824-.8681641 1.3505859-.8398819-.2332993-1.7483139-1.9566307-2.1230469-2.7402344-23.4261146-48.9251051-23.1642514-52.7360115-24.3105474-53.0385742-.2361297-.0608778-.4754724-.0045767-.6542969.1357422-.5058593.4003906-1.3574218.1533203-1.7773437-.3349609-1.1154876-1.297133-.5096667-4.335063 1.5068359-5.3203125 1.046875-.5136719 2.4121099-.2856446 3.1093755.5205078z"/></g></svg>