<svg id="Layer_1" enable-background="new 0 0 66 66" viewBox="0 0 66 66" xmlns="http://www.w3.org/2000/svg"><g fill="rgb(0,0,0)"><path d="m62.99 15.54c-.36-.48-.84-.88-1.44-1.12-.84-.34-1.76-.33-2.59.03-.83.35-1.48 1.02-1.82 1.85-.07.17-.15.34-.23.51l-7.96-7.6c.25-.13.5-.25.76-.35 1.74-.7 2.58-2.67 1.88-4.42-.24-.59-.64-1.07-1.12-1.43-.9-1.23-2.54-1.75-4.01-1.16-6.47 2.6-10.44 9.32-9.89 16.7.02.24.05.49.08.74-5.18-1.29-9.21-1.02-12.29.82-3.6 2.16-5.65 6.44-5.61 11.73.01 1.61.19 3.31.57 5.3-2.33-.35-5.27-.56-8.13.11-3.89.91-7.24 3.47-9.18 7.04-.71 1.31-.47 2.96.59 4.02.12.12.25.22.39.33.1.13.2.26.32.38.22.22.47.41.78.58.5.27 1.06.41 1.62.41.33 0 .65-.04.97-.14.66-.2 1.23-.58 1.65-1.09l9.14 8.71c-1.41.96-1.9 2.87-1.06 4.43.17.29.36.56.58.77.12.12.25.22.38.32.1.14.21.27.33.39.65.65 1.52.99 2.41.99.55 0 1.1-.13 1.61-.4 3.57-1.94 6.13-5.28 7.04-9.17.67-2.86.46-5.79.11-8.13 2.02.38 3.71.56 5.3.57h.14c5.23 0 9.45-2.04 11.59-5.61 1.84-3.08 2.11-7.1.82-12.29.25.03.49.06.73.08 7.39.55 14.1-3.42 16.7-9.89.59-1.47.07-3.12-1.16-4.01zm-41.93 29.39c.29 1.38.51 2.75.59 4.07-.88-.83-1.73-1.65-2.58-2.46-.77-.73-1.54-1.47-2.33-2.22 1.4.07 2.86.31 4.32.61zm-7.61-.37c.4-.09.82-.16 1.25-.2 1.16 1.11 2.27 2.17 3.38 3.22 1.17 1.11 2.34 2.23 3.57 3.4-.04.54-.1 1.06-.22 1.56-.09.4-.23.77-.38 1.14l-9.04-8.63c.46-.2.94-.37 1.44-.49zm-2.71 1.28 9.61 9.16c-.44.64-.99 1.22-1.64 1.7l-9.59-9.15c.45-.67 1-1.24 1.62-1.71zm27.86-18.44c.25.84.49 1.64.7 2.44.45 1.7.68 3.2.7 4.46l-8.7-8.3c1.34-.03 2.97.19 4.85.7.81.21 1.61.45 2.45.7zm-9.11-1.14 10.36 9.88c-.11.5-.27.94-.49 1.31-.21.35-.5.66-.84.94-.01-.17-.08-.34-.21-.47l-10.58-10.08c-.08-.08-.17-.12-.27-.16.31-.44.67-.79 1.09-1.04.27-.16.59-.28.94-.38zm-2.68 2.69 10.5 10.01c.04.03.08.05.12.08-.77.35-1.71.58-2.75.67-1.47-1.4-2.84-2.7-4.2-4-1.37-1.3-2.74-2.6-4.21-4 .05-1.04.24-1.97.54-2.76zm.36 9.88c-.44-1.95-.75-3.58-.87-5.11 1.09 1.04 2.14 2.03 3.18 3.03 1.03.98 2.06 1.96 3.13 2.98-1.67-.1-3.42-.43-5.44-.9zm17.32-17.32c-.24-1.04-.39-1.93-.45-2.75-.04-.59-.04-1.16.01-1.73.9.85 1.77 1.68 2.64 2.51.83.79 1.66 1.58 2.51 2.39-.64.06-1.29.08-1.95.03-.84-.06-1.72-.21-2.76-.45zm6.45.1c-1.12-1.07-2.19-2.09-3.26-3.11-1.1-1.05-2.2-2.09-3.35-3.19.21-.85.52-1.65.92-2.39l8.08 7.71c-.74.42-1.54.75-2.39.98zm5.22-3.53c-.46.64-1 1.22-1.62 1.72l-8.5-8.11c.48-.63 1.03-1.2 1.66-1.68zm-9.17-14.89c1-.4 2.14.08 2.55 1.08.4 1-.08 2.14-1.08 2.54-4.3 1.73-6.94 6.29-6.56 11.34.07.85.21 1.75.44 2.78l-.29-.08c-.22-.07-.44-.13-.68-.21-.21-.06-.41-.12-.62-.19l-.63-.19c-.65-.2-1.31-.39-1.98-.58-.06-.43-.11-.85-.14-1.24-.51-6.75 3.1-12.88 8.99-15.25zm-43.71 41.78c1.74-3.21 4.74-5.51 8.24-6.33 1.24-.29 2.51-.4 3.74-.4 2.04 0 3.96.3 5.42.58.86.17 1.7.35 2.4.51l.29.07c.5.12 1 .24 1.5.36.51.13 1.02.25 1.53.36 2.67.63 4.89 1.05 7.08 1.06h.1c3.26 0 5.87-1.12 7-3.01 1.11-1.86 1.14-4.79.1-8.71-.14-.53-.29-1.05-.44-1.58.56.17 1.14.34 1.71.49l.12.03c.01 0 .05.01.06.02.03.01.05.01.06.02.29.08.59.16.89.23.04.01.08.02.12.03.02.01.04.01.06.01.12.03.24.06.36.09.03.01.06.02.1.02.32.07.6.13.88.19h.01c1.18 4.78.96 8.43-.67 11.16-1.87 3.13-5.64 4.91-10.36 4.91-.04 0-.09 0-.13 0-1.6-.01-3.32-.21-5.43-.62-1.36-.27-2.7-.59-4.06-.92-.56-.14-1.11-.27-1.66-.39l-.1-.02c-3.34-.77-6.84-1.39-9.79-.7-2.45.57-4.47 2.13-5.69 4.38-.25.46-.66.79-1.16.94s-1.03.09-1.48-.15c-.18-.1-.34-.22-.46-.34-.61-.58-.75-1.53-.34-2.29zm24.07 9.52c-.81 3.49-3.12 6.5-6.32 8.24-.76.41-1.71.27-2.32-.34-.12-.12-.24-.28-.33-.45-.25-.46-.3-.99-.16-1.49.15-.5.48-.91.94-1.16 2.25-1.22 3.81-3.25 4.39-5.69.58-2.48.23-5.34-.35-8.18l1.14.27c1.01.24 2.01.47 3.02.69.53 3.26.53 5.8-.01 8.11zm35.46-35.48c-2.37 5.89-8.51 9.5-15.25 8.99-.72-.06-1.47-.15-2.23-.29-.35-.06-.7-.13-1.05-.21-.04-.01-.08-.02-.13-.03-.24-.06-.49-.12-.73-.18s-.48-.12-.72-.18c-.13-.03-.26-.07-.39-.1-.58-.16-1.15-.33-1.73-.5-.19-.05-.37-.11-.56-.17l-.53-.16c-.05-.01-.1-.03-.13-.04l-.25-.08c-.9-.27-1.74-.52-2.61-.75-3.93-1.04-6.86-1.01-8.72.1-1.91 1.15-3.03 3.8-3.01 7.1.02 1.98.39 4.06.81 5.95-.13-.03-.26-.06-.4-.09-.5-.12-1.01-.24-1.51-.36l-.3-.07c-.16-.04-.33-.08-.51-.11-.06-.01-.12-.03-.18-.04-.12-.03-.24-.05-.37-.08-.08-.02-.16-.03-.23-.05-.11-.02-.22-.05-.34-.07-.09-.02-.18-.04-.27-.06-.03-.01-.06-.01-.08-.02-.35-1.87-.52-3.46-.53-4.97-.03-4.77 1.76-8.6 4.91-10.49 2.81-1.68 6.6-1.87 11.59-.56l.13.03c.97.26 1.95.55 2.89.84l.63.19c.21.07.42.13.63.19.27.08.54.16.81.24l.33.1c.16.05.32.09.47.13 1.84.52 3.25.79 4.57.89 1.3.09 2.56-.01 3.75-.29.03-.01.06-.01.09-.02 3.41-.82 6.22-3.08 7.5-6.25.19-.48.56-.86 1.05-1.07.48-.2 1.01-.21 1.49-.02 1.03.42 1.52 1.56 1.11 2.56z"/><path d="m30.18 21.85c-2.26.23-4.41 1.36-5.88 3.09-1.48 1.73-2.25 4.03-2.13 6.3.02.32.28.57.6.57h.03c.33-.02.58-.3.57-.63-.11-1.97.56-3.95 1.84-5.45s3.14-2.47 5.1-2.68c.33-.03.57-.33.53-.66-.03-.33-.33-.57-.66-.54z"/><path d="m33.11 21.9h-.75c-.33 0-.6.27-.6.6s.27.6.6.6h.75c.33 0 .6-.27.6-.6s-.27-.6-.6-.6z"/></g></svg>