<svg id="Layer_1" enable-background="new 0 0 53 53" height="512" viewBox="0 0 53 53" width="512" xmlns="http://www.w3.org/2000/svg"><g><g><g><path d="m16.3714848 46.3649445c-.3017578 0-.5859385-.1826172-.7001963-.4814453-2.2773438-5.9287109.0917969-13.3125 5.3945322-16.8085957.2294922-.1513672.4628906-.2958984.6972656-.4404297.5986328-.3691406 1.1640625-.71875 1.6210938-1.1660156.4873047-.4765625.9492188-1.2412109.7871094-1.9599609-.1953125-.8623047-1.1992188-1.4248047-2.1699219-1.9677734l-.3935547-.2226563c-5.4912109-3.1533203-8.1386728-10.2988272-6.0273447-16.2675781.1376953-.390625.5654306-.5947266.9570322-.4570313.390625.1376953.5947266.5664063.4570313.9570313-1.8457041 5.219727.5585938 11.7099609 5.359375 14.4667969l.3798828.2138672c1.1396484.6386719 2.5585938 1.4326172 2.9003906 2.9472656.2539063 1.1220703-.1953125 2.3789063-1.2011719 3.3623047-.5761719.5634766-1.2392578.9736328-1.881855 1.3701172-.2216606.1367188-.4423637.2734375-.6591606.4160156-4.7382813 3.1240253-6.8554697 9.7216816-4.8203125 15.0195332.1484375.3867188-.0449219.8203125-.4316406.96875-.0878907.0341796-.178711.0498046-.2685547.0498046z"/></g></g><g><g><path d="m37.1087875 46.3649445c-.0898438 0-.1806641-.015625-.2685547-.0498047-.3867188-.1484375-.5800781-.5820313-.4316406-.96875 2.0341797-5.2978516-.0839844-11.8955078-4.8212872-15.0195332-.2158203-.1425781-.4375-.2792969-.6591797-.4160156-.6416016-.3964844-1.3046875-.8056641-1.8818359-1.3701172-1.0058594-.9833984-1.4550781-2.2402344-1.2011719-3.3623047.3417969-1.5146484 1.7607422-2.3085938 2.9003906-2.9472656l.3798828-.2138672c4.8007603-2.7568359 7.2050762-9.2470694 5.3593731-14.4667969-.1376953-.390625.0663872-.8193359.4570313-.9570313.3925781-.1376953.8193359.0664063.9570313.4570313 2.1113281 5.9687505-.5361328 13.1142578-6.0273418 16.2675781l-.3935547.2226563c-.9707031.5429688-1.9746094 1.1054688-2.1699219 1.9677734-.1621094.71875.2998047 1.4833984.7871094 1.9599609.4580078.4472656 1.0234375.796875 1.6220703 1.1660156.2333984.1445313.4677715.2890625.6962872.4404297 5.3017578 3.4960957 7.671875 10.8798847 5.3955078 16.8085957-.1142579.2988282-.3984376.4814454-.7001954.4814454z"/></g></g><g><g><path d="m36.6185532 8.0504904-22.0507803-.0097656c-1.6035156-.0009766-2.8808594-.8164067-3.2558594-2.079102-.3623047-1.2226563.2373047-2.5185547 1.5654297-3.3828125 1.2382813-.8056639 2.8789063-.7089843 4.3291025-.6220702.5537109.0332031 1.078125.0634764 1.5244141.0419922 6.3691406-.3125 12.7509766-.3310547 18.9638653-.0507813.8173828.0361328 3.3037109.1474608 3.9667969 2.0537109.4853516 1.3964844-.4541016 2.8652344-1.6425781 3.4785156-1.107422.5703129-2.3789064.5703129-3.4003907.5703129zm-20.8525381-4.6503911c-.7998047 0-1.5380859.0898438-2.0703125.4365234-.7607422.4941406-1.1142578 1.1298828-.9453125 1.6982422.1816406.6103516.8945313 1.0058594 1.8173828 1.0058594l22.0507813.0097656c.9042969 0 1.9287109 0 2.7128906-.4042969.609375-.3134766 1.1210938-1.0527344.9130859-1.6523438-.2177734-.6269531-1.0986328-.9794922-2.6162109-1.0478516-6.1669913-.2753905-12.5009757-.2597655-18.8232413.0507814-.5283203.0273438-1.0917969-.0058594-1.6875-.0429688-.453125-.0263672-.9111328-.0537109-1.3515634-.0537109z"/></g></g><g><g><path d="m36.7455063 51.2497101c-.0429688 0-.0859375 0-.1279297 0l-22.0498037-.0087891c-1.6035156-.0009766-2.8818359-.8173828-3.2558594-2.0800781-.3613281-1.2216797.2382813-2.5175781 1.5654297-3.3818359 1.2382813-.8066406 2.8808594-.7109375 4.3320322-.6220703.5537109.0332031 1.0732422.0625 1.5224609.0419922 6.3583984-.3115234 12.7392578-.3300781 18.9628887-.0507813.8173828.0361328 3.3037109.1474609 3.9667969 2.0537109.4853516 1.3964844-.4541016 2.8642578-1.6425781 3.4775391-1.0654297.5488281-2.2763672.5703125-3.2734375.5703125zm-20.9785147-4.6503906c-.8007813 0-1.5390625.0908203-2.0712891.4375-.7607422.4941406-1.1132813 1.1289063-.9453125 1.6972656.1806641.6113281.8945313 1.0058594 1.8183594 1.0068359l22.0498047.0087891c.9179688.0087891 1.9257813.0019531 2.7128906-.4042969.609375-.3134766 1.1210938-1.0527344.9130859-1.6513672-.2177734-.6269531-1.0986328-.9794922-2.6162109-1.0478516-6.178709-.2753906-12.5117168-.2587891-18.8232403.0507813-.5292969.0283203-1.0898438-.0078125-1.6845703-.0429688-.4541025-.0273437-.9130868-.0546874-1.3535175-.0546874z"/></g></g><g><g><path d="m21.7005863 40.732132c-2.1904297 0-4.375-.7255859-6.118165-2.0976563-.3251953-.2558594-.3818359-.7275391-.125-1.0527344.2539063-.3261719.7265635-.3828125 1.0527353-.125 2.1523438 1.6933594 5.1044922 2.2246094 7.7011719 1.3828125.8203125-.265625 1.5976563-.6552734 2.421875-1.0683594 1.0048828-.5048828 2.0439453-1.0263672 3.1875-1.3154297 2.9033184-.7324219 6.1054478.21875 8.154295 2.4287109.2822266.3037109.2636719.7783203-.0400391 1.0595703s-.7783203.2636719-1.0595703-.0400391c-1.6552734-1.7861328-4.3378906-2.5878906-6.6874981-1.9931641-.984375.2480469-1.90625.7109375-2.8828125 1.2011719-.8369141.4199219-1.7021484.8535156-2.6308594 1.1552734-.9638672.3125002-1.9697265.464844-2.9736328.464844z"/></g></g><g><g><path d="m37.4876938 15.0036154c-.0566406 0-.1142578-.0058594-.1708984-.0195313-6.9101543-1.609375-14.2187481-1.6142578-21.1308575-.0185547-.399415.0957031-.8066416-.1572266-.899415-.5615234-.09375-.4033203.1582031-.8066406.5615234-.8994141 7.1318369-1.6494141 14.6728525-1.6416016 21.8085938.0185547.4033203.09375.6542969.4970703.5605469.9003906-.0800792.3466797-.3886729.5800782-.7294932.5800782z"/></g></g></g></svg>